<?xml version="1.0" standalone="no"?>
<!DOCTYPE svg PUBLIC "-//W3C//DTD SVG 20010904//EN"
 "http://www.w3.org/TR/2001/REC-SVG-20010904/DTD/svg10.dtd">
<svg version="1.0" xmlns="http://www.w3.org/2000/svg"
 width="591.000000pt" height="591.000000pt" viewBox="0 0 591.000000 591.000000"
 preserveAspectRatio="xMidYMid meet">
<metadata>
Created by potrace 1.15, written by Peter Selinger 2001-2017
</metadata>
<g transform="translate(0.000000,591.000000) scale(0.100000,-0.100000)"
fill="#000000" stroke="none">
<path d="M130 4765 l0 -975 975 0 975 0 0 975 0 975 -975 0 -975 0 0 -975z
m1510 0 l0 -535 -535 0 -535 0 0 535 0 535 535 0 535 0 0 -535z"/>
<path d="M770 4770 l0 -330 330 0 330 0 0 330 0 330 -330 0 -330 0 0 -330z"/>
<path d="M2500 5520 l0 -220 215 0 215 0 0 -210 0 -210 -215 0 -215 0 0 -440
0 -440 215 0 215 0 0 -315 0 -315 -970 0 -970 0 0 -215 0 -215 -210 0 -210 0
0 215 0 215 -220 0 -220 0 0 -225 0 -225 215 0 215 0 0 -215 0 -215 435 0 435
0 0 215 0 215 210 0 210 0 0 -215 0 -215 550 0 550 0 0 215 0 215 210 0 210 0
0 -215 0 -215 330 0 330 0 0 215 0 215 210 0 210 0 0 -215 0 -215 650 0 650 0
0 225 0 225 -215 0 -215 0 0 215 0 215 -220 0 -220 0 0 -215 0 -215 -210 0
-210 0 0 215 0 215 -540 0 -540 0 0 325 0 325 -215 0 -215 0 0 210 0 210 215
0 215 0 0 435 0 435 -215 0 -215 0 0 215 0 215 -225 0 -225 0 0 -220z"/>
<path d="M3800 4765 l0 -975 975 0 975 0 0 975 0 975 -975 0 -975 0 0 -975z
m1510 0 l0 -535 -535 0 -535 0 0 535 0 535 535 0 535 0 0 -535z"/>
<path d="M4450 4770 l0 -330 330 0 330 0 0 330 0 330 -330 0 -330 0 0 -330z"/>
<path d="M2500 2065 l0 -225 215 0 215 0 0 -210 0 -210 -215 0 -215 0 0 -435
0 -435 215 0 215 0 0 -215 0 -215 225 0 225 0 0 220 0 220 -215 0 -214 0 -3
210 -3 210 428 0 427 0 0 -430 0 -430 220 0 220 0 0 215 0 215 210 0 210 0 0
-215 0 -215 225 0 225 0 0 215 0 215 100 0 100 0 0 -215 0 -215 220 0 220 0 0
220 0 220 -215 0 -215 0 0 210 0 210 215 0 215 0 0 440 0 440 -215 0 -215 0 0
215 0 215 -760 0 -760 0 0 -215 0 -215 -425 0 -425 0 0 215 0 215 -225 0 -225
0 0 -225z m2160 -435 l0 -210 -210 0 -210 0 0 210 0 210 210 0 210 0 0 -210z
m-430 -430 l0 -210 -210 0 -210 0 0 210 0 210 210 0 210 0 0 -210z m650 -430
l0 -210 -102 0 -103 0 0 210 0 210 103 0 102 0 0 -210z"/>
<path d="M130 1095 l0 -975 975 0 975 0 0 975 0 975 -975 0 -975 0 0 -975z
m1510 0 l0 -535 -535 0 -535 0 0 535 0 535 535 0 535 0 0 -535z"/>
<path d="M770 1090 l0 -330 330 0 330 0 0 330 0 330 -330 0 -330 0 0 -330z"/>
</g>
</svg>
