<?xml version="1.0" standalone="no"?>
<!DOCTYPE svg PUBLIC "-//W3C//DTD SVG 20010904//EN"
 "http://www.w3.org/TR/2001/REC-SVG-20010904/DTD/svg10.dtd">
<svg version="1.0" xmlns="http://www.w3.org/2000/svg"
 width="591.000000pt" height="591.000000pt" viewBox="0 0 591.000000 591.000000"
 preserveAspectRatio="xMidYMid meet">
<metadata>
Created by potrace 1.15, written by Peter Selinger 2001-2017
</metadata>
<g transform="translate(0.000000,591.000000) scale(0.100000,-0.100000)"
fill="#000000" stroke="none">
<path d="M840 4909 c0 -6 22 -50 49 -98 27 -47 60 -106 73 -131 79 -148 113
-208 131 -227 11 -13 63 -39 116 -59 53 -20 115 -45 138 -55 23 -11 46 -19 52
-19 5 0 22 -7 38 -15 27 -14 99 -42 458 -177 88 -33 162 -62 164 -64 12 -11
-32 -37 -80 -49 -55 -13 -273 -78 -474 -140 -60 -18 -164 -50 -230 -70 -66
-20 -147 -44 -180 -54 -33 -10 -107 -33 -165 -50 -58 -18 -134 -41 -170 -52
-36 -10 -87 -26 -115 -34 -133 -39 -296 -88 -350 -104 -33 -11 -71 -22 -85
-25 -14 -3 -33 -11 -43 -18 -16 -12 -18 -82 -24 -1228 -5 -1084 -4 -1216 9
-1228 23 -18 434 -5 454 15 9 9 14 37 14 76 1 34 5 163 10 287 5 124 14 353
20 510 14 379 33 485 122 668 40 83 127 202 188 256 224 198 559 287 869 230
362 -66 618 -319 771 -764 58 -170 101 -588 112 -1115 2 -66 7 -126 11 -132 6
-10 71 -13 267 -13 253 0 260 0 271 21 6 12 8 36 4 55 -7 42 12 558 26 669 5
44 14 118 19 165 9 79 26 180 51 310 25 130 94 294 172 410 109 161 272 288
460 357 59 21 223 53 277 53 76 0 281 -30 355 -52 316 -94 523 -308 622 -644
16 -53 18 -126 21 -691 2 -513 5 -633 16 -642 9 -8 92 -12 242 -14 l229 -2 -3
1184 c-2 778 -6 1189 -13 1197 -5 7 -42 22 -82 34 -40 12 -88 28 -107 35 -19
7 -116 38 -215 70 -99 32 -196 63 -215 71 -19 7 -66 23 -105 34 -38 12 -86 28
-105 35 -19 7 -156 52 -305 100 -148 48 -328 107 -400 130 -71 24 -195 64
-275 90 -80 25 -149 51 -155 56 -12 12 18 37 55 46 14 3 63 20 110 38 47 18
236 88 420 155 184 67 343 129 353 138 13 12 170 259 277 437 11 18 12 27 3
36 -9 9 -30 5 -87 -15 -42 -14 -83 -26 -91 -26 -8 0 -29 -6 -47 -14 -18 -8
-64 -23 -103 -34 -122 -36 -279 -83 -320 -97 -22 -7 -74 -23 -115 -35 -41 -12
-93 -28 -115 -35 -22 -7 -74 -23 -115 -35 -41 -12 -93 -28 -115 -35 -22 -7
-74 -23 -115 -35 -127 -39 -203 -62 -245 -75 -47 -15 -228 -71 -370 -113 -55
-17 -145 -44 -200 -61 l-100 -31 -70 24 c-38 13 -198 65 -355 116 -157 50
-301 98 -320 105 -19 7 -89 29 -155 50 -283 90 -342 109 -375 121 -19 6 -66
22 -105 34 -38 11 -86 27 -105 34 -19 8 -116 40 -215 71 -99 31 -193 63 -210
70 -48 20 -105 28 -105 14z m568 -350 c97 -33 191 -64 207 -69 17 -4 93 -28
170 -54 77 -25 169 -55 205 -67 36 -11 81 -26 100 -33 19 -7 58 -20 85 -29 28
-9 191 -62 363 -118 l313 -102 112 33 c62 18 153 45 202 61 50 15 131 40 180
54 50 15 131 40 180 56 50 16 95 29 102 29 7 0 27 6 45 14 18 8 67 24 108 37
41 12 125 37 185 55 61 19 133 41 160 49 52 15 200 61 367 114 110 35 118 36
118 18 0 -23 -31 -43 -100 -66 -36 -12 -74 -25 -85 -30 -30 -13 -184 -69 -245
-90 -19 -7 -222 -81 -450 -165 -228 -85 -432 -159 -452 -166 -54 -17 -52 -46
5 -60 23 -6 94 -28 157 -49 63 -21 243 -80 400 -131 157 -51 299 -99 317 -106
17 -8 35 -14 40 -14 9 1 214 -64 273 -85 19 -7 163 -55 320 -105 157 -50 301
-98 320 -105 19 -7 87 -29 150 -50 63 -20 131 -42 150 -49 19 -8 61 -21 92
-30 32 -9 59 -20 62 -24 13 -21 25 -2049 13 -2070 -5 -7 -30 -12 -62 -12 -43
0 -56 4 -65 19 -6 13 -10 203 -10 549 0 332 -4 550 -11 588 -38 213 -155 431
-311 580 -94 90 -268 198 -351 219 -15 4 -30 11 -33 16 -3 5 -13 9 -23 9 -10
0 -47 9 -82 19 -141 42 -371 56 -504 31 -332 -61 -597 -240 -765 -516 -127
-207 -178 -383 -230 -789 -16 -124 -39 -478 -40 -602 0 -91 -2 -103 -19 -113
-30 -15 -156 -13 -170 4 -7 9 -17 126 -26 321 -8 169 -17 310 -20 314 -2 5 -9
58 -15 119 -37 391 -180 720 -415 958 -223 225 -450 316 -795 318 -211 1 -335
-27 -529 -120 -151 -73 -246 -146 -345 -264 -125 -149 -203 -313 -248 -524
-20 -92 -21 -115 -49 -821 -6 -178 -16 -316 -22 -323 -7 -8 -28 -12 -61 -10
l-51 3 -2 1065 c-2 586 1 1071 6 1078 4 7 32 20 62 28 30 9 74 22 99 30 25 7
74 22 110 33 36 10 97 29 135 40 39 12 91 28 118 36 87 26 141 43 212 64 39
12 88 26 110 32 22 5 49 13 60 18 11 5 76 26 145 46 158 45 254 74 305 90 22
7 72 22 110 34 39 11 212 63 385 115 173 52 336 100 363 107 33 8 47 16 47 29
0 19 -15 26 -185 90 -60 23 -172 66 -248 96 -76 30 -197 76 -270 104 -73 27
-175 65 -227 86 -159 62 -181 70 -300 114 -116 43 -158 69 -146 89 4 6 9 11
12 11 3 0 85 -27 182 -61z"/>
</g>
</svg>
